  0
SECTION
  2
HEADER
  9
$ACADVER
  1
AC1027
  9
$ACADMAINTVER
 70
105
  9
$DWGCODEPAGE
  3
ANSI_1252
  9
$LASTSAVEDBY
  1
ezdxf
  9
$REQUIREDVERSIONS
160
0
  9
$INSBASE
 10
0.0
 20
0.0
 30
0.0
  9
$EXTMIN
 10
-100
 20
-100
 30
-100
  9
$EXTMAX
 10
100
 20
100
 30
100
  9
$LIMMIN
 10
0.0
 20
0.0
  9
$LIMMAX
 10
420.0
 20
297.0
  9
$ORTHOMODE
 70
0
  9
$REGENMODE
 70
1
  9
$FILLMODE
 70
1
  9
$QTEXTMODE
 70
0
  9
$MIRRTEXT
 70
1
  9
$LTSCALE
 40
1.0
  9
$ATTMODE
 70
1
  9
$TEXTSIZE
 40
2.5
  9
$TRACEWID
 40
1.0
  9
$TEXTSTYLE
  7
Standard
  9
$CLAYER
  8
0
  9
$CELTYPE
  6
ByLayer
  9
$CECOLOR
 62
256
  9
$CELTSCALE
 40
1.0
  9
$DISPSILH
 70
0
  9
$DIMSCALE
 40
1.0
  9
$DIMASZ
 40
2.5
  9
$DIMEXO
 40
0.625
  9
$DIMDLI
 40
3.75
  9
$DIMRND
 40
0.0
  9
$DIMDLE
 40
0.0
  9
$DIMEXE
 40
1.25
  9
$DIMTP
 40
0.0
  9
$DIMTM
 40
0.0
  9
$DIMTXT
 40
2.5
  9
$DIMCEN
 40
2.5
  9
$DIMTSZ
 40
0.0
  9
$DIMTOL
 70
0
  9
$DIMLIM
 70
0
  9
$DIMTIH
 70
0
  9
$DIMTOH
 70
0
  9
$DIMSE1
 70
0
  9
$DIMSE2
 70
0
  9
$DIMTAD
 70
1
  9
$DIMZIN
 70
8
  9
$DIMBLK
  1

  9
$DIMASO
 70
1
  9
$DIMSHO
 70
1
  9
$DIMPOST
  1

  9
$DIMAPOST
  1

  9
$DIMALT
 70
0
  9
$DIMALTD
 70
3
  9
$DIMALTF
 40
0.03937007874
  9
$DIMLFAC
 40
1.0
  9
$DIMTOFL
 70
1
  9
$DIMTVP
 40
0.0
  9
$DIMTIX
 70
0
  9
$DIMSOXD
 70
0
  9
$DIMSAH
 70
0
  9
$DIMBLK1
  1

  9
$DIMBLK2
  1

  9
$DIMSTYLE
  2
ISO-25
  9
$DIMCLRD
 70
0
  9
$DIMCLRE
 70
0
  9
$DIMCLRT
 70
0
  9
$DIMTFAC
 40
1.0
  9
$DIMGAP
 40
0.625
  9
$DIMJUST
 70
0
  9
$DIMSD1
 70
0
  9
$DIMSD2
 70
0
  9
$DIMTOLJ
 70
0
  9
$DIMTZIN
 70
8
  9
$DIMALTZ
 70
0
  9
$DIMALTTZ
 70
0
  9
$DIMUPT
 70
0
  9
$DIMDEC
 70
2
  9
$DIMTDEC
 70
2
  9
$DIMALTU
 70
2
  9
$DIMALTTD
 70
3
  9
$DIMTXSTY
  7
Standard
  9
$DIMAUNIT
 70
0
  9
$DIMADEC
 70
0
  9
$DIMALTRND
 40
0.0
  9
$DIMAZIN
 70
0
  9
$DIMDSEP
 70
44
  9
$DIMATFIT
 70
3
  9
$DIMFRAC
 70
0
  9
$DIMLDRBLK
  1

  9
$DIMLUNIT
 70
2
  9
$DIMLWD
 70
-2
  9
$DIMLWE
 70
-2
  9
$DIMTMOVE
 70
0
  9
$DIMFXL
 40
1.0
  9
$DIMFXLON
 70
0
  9
$DIMJOGANG
 40
0.785398163397
  9
$DIMTFILL
 70
0
  9
$DIMTFILLCLR
 70
0
  9
$DIMARCSYM
 70
0
  9
$DIMLTYPE
  6

  9
$DIMLTEX1
  6

  9
$DIMLTEX2
  6

  9
$DIMTXTDIRECTION
 70
0
  9
$LUNITS
 70
2
  9
$LUPREC
 70
4
  9
$SKETCHINC
 40
1.0
  9
$FILLETRAD
 40
10.0
  9
$AUNITS
 70
0
  9
$AUPREC
 70
2
  9
$MENU
  1
.
  9
$ELEVATION
 40
0.0
  9
$PELEVATION
 40
0.0
  9
$THICKNESS
 40
0.0
  9
$LIMCHECK
 70
0
  9
$CHAMFERA
 40
0.0
  9
$CHAMFERB
 40
0.0
  9
$CHAMFERC
 40
0.0
  9
$CHAMFERD
 40
0.0
  9
$SKPOLY
 70
0
  9
$TDCREATE
 40
2459287.686759259
  9
$TDUCREATE
 40
2458532.153996898
  9
$TDUPDATE
 40
2459287.6867939816
  9
$TDUUPDATE
 40
2458532.1544311
  9
$TDINDWG
 40
0.0
  9
$TDUSRTIMER
 40
0.0
  9
$USRTIMER
 70
1
  9
$ANGBASE
 50
0.0
  9
$ANGDIR
 70
0
  9
$PDMODE
 70
0
  9
$PDSIZE
 40
0.0
  9
$PLINEWID
 40
0.0
  9
$SPLFRAME
 70
0
  9
$SPLINETYPE
 70
6
  9
$SPLINESEGS
 70
8
  9
$HANDSEED
  5
35
  9
$SURFTAB1
 70
6
  9
$SURFTAB2
 70
6
  9
$SURFTYPE
 70
6
  9
$SURFU
 70
6
  9
$SURFV
 70
6
  9
$UCSBASE
  2

  9
$UCSNAME
  2

  9
$UCSORG
 10
0.0
 20
0.0
 30
0.0
  9
$UCSXDIR
 10
1.0
 20
0.0
 30
0.0
  9
$UCSYDIR
 10
0.0
 20
1.0
 30
0.0
  9
$UCSORTHOREF
  2

  9
$UCSORTHOVIEW
 70
0
  9
$UCSORGTOP
 10
0.0
 20
0.0
 30
0.0
  9
$UCSORGBOTTOM
 10
0.0
 20
0.0
 30
0.0
  9
$UCSORGLEFT
 10
0.0
 20
0.0
 30
0.0
  9
$UCSORGRIGHT
 10
0.0
 20
0.0
 30
0.0
  9
$UCSORGFRONT
 10
0.0
 20
0.0
 30
0.0
  9
$UCSORGBACK
 10
0.0
 20
0.0
 30
0.0
  9
$PUCSBASE
  2

  9
$PUCSNAME
  2

  9
$PUCSORG
 10
0.0
 20
0.0
 30
0.0
  9
$PUCSXDIR
 10
1.0
 20
0.0
 30
0.0
  9
$PUCSYDIR
 10
0.0
 20
1.0
 30
0.0
  9
$PUCSORTHOREF
  2

  9
$PUCSORTHOVIEW
 70
0
  9
$PUCSORGTOP
 10
0.0
 20
0.0
 30
0.0
  9
$PUCSORGBOTTOM
 10
0.0
 20
0.0
 30
0.0
  9
$PUCSORGLEFT
 10
0.0
 20
0.0
 30
0.0
  9
$PUCSORGRIGHT
 10
0.0
 20
0.0
 30
0.0
  9
$PUCSORGFRONT
 10
0.0
 20
0.0
 30
0.0
  9
$PUCSORGBACK
 10
0.0
 20
0.0
 30
0.0
  9
$USERI1
 70
0
  9
$USERI2
 70
0
  9
$USERI3
 70
0
  9
$USERI4
 70
0
  9
$USERI5
 70
0
  9
$USERR1
 40
0.0
  9
$USERR2
 40
0.0
  9
$USERR3
 40
0.0
  9
$USERR4
 40
0.0
  9
$USERR5
 40
0.0
  9
$WORLDVIEW
 70
1
  9
$SHADEDGE
 70
3
  9
$SHADEDIF
 70
70
  9
$TILEMODE
 70
1
  9
$MAXACTVP
 70
64
  9
$PINSBASE
 10
0.0
 20
0.0
 30
0.0
  9
$PLIMCHECK
 70
0
  9
$PEXTMIN
 10
1e+20
 20
1e+20
 30
1e+20
  9
$PEXTMAX
 10
-1e+20
 20
-1e+20
 30
-1e+20
  9
$PLIMMIN
 10
0.0
 20
0.0
  9
$PLIMMAX
 10
420.0
 20
297.0
  9
$UNITMODE
 70
0
  9
$VISRETAIN
 70
1
  9
$PLINEGEN
 70
0
  9
$PSLTSCALE
 70
1
  9
$TREEDEPTH
 70
3020
  9
$CMLSTYLE
  2
Standard
  9
$CMLJUST
 70
0
  9
$CMLSCALE
 40
20.0
  9
$PROXYGRAPHICS
 70
1
  9
$MEASUREMENT
 70
1
  9
$CELWEIGHT
370
-1
  9
$ENDCAPS
280
0
  9
$JOINSTYLE
280
0
  9
$LWDISPLAY
290
0
  9
$INSUNITS
 70
6
  9
$HYPERLINKBASE
  1

  9
$STYLESHEET
  1

  9
$XEDIT
290
1
  9
$CEPSNTYPE
380
0
  9
$PSTYLEMODE
290
1
  9
$FINGERPRINTGUID
  2
3528A6EE-8419-11EB-B2B3-A78370E94218
  9
$VERSIONGUID
  2
36B26072-8419-11EB-B2B3-A78370E94218
  9
$EXTNAMES
290
1
  9
$PSVPSCALE
 40
0.0
  9
$OLESTARTUP
290
0
  9
$SORTENTS
280
127
  9
$INDEXCTL
280
0
  9
$HIDETEXT
280
1
  9
$XCLIPFRAME
280
2
  9
$HALOGAP
280
0
  9
$OBSCOLOR
 70
257
  9
$OBSLTYPE
280
0
  9
$INTERSECTIONDISPLAY
280
0
  9
$INTERSECTIONCOLOR
 70
257
  9
$DIMASSOC
280
2
  9
$PROJECTNAME
  1

  9
$CAMERADISPLAY
290
0
  9
$LENSLENGTH
 40
50.0
  9
$CAMERAHEIGHT
 40
0.0
  9
$STEPSPERSEC
 40
24.0
  9
$STEPSIZE
 40
100.0
  9
$3DDWFPREC
 40
2.0
  9
$PSOLWIDTH
 40
0.005
  9
$PSOLHEIGHT
 40
0.08
  9
$LOFTANG1
 40
1.570796326795
  9
$LOFTANG2
 40
1.570796326795
  9
$LOFTMAG1
 40
0.0
  9
$LOFTMAG2
 40
0.0
  9
$LOFTPARAM
 70
7
  9
$LOFTNORMALS
280
1
  9
$LATITUDE
 40
37.795
  9
$LONGITUDE
 40
-122.394
  9
$NORTHDIRECTION
 40
0.0
  9
$TIMEZONE
 70
-8000
  9
$LIGHTGLYPHDISPLAY
280
1
  9
$TILEMODELIGHTSYNCH
280
1
  9
$CMATERIAL
347
20
  9
$SOLIDHIST
280
0
  9
$SHOWHIST
280
1
  9
$DWFFRAME
280
2
  9
$DGNFRAME
280
2
  9
$REALWORLDSCALE
290
1
  9
$INTERFERECOLOR
 62
256
  9
$CSHADOW
280
0
  9
$SHADOWPLANELOCATION
 40
0.0
  0
ENDSEC
  0
SECTION
  2
CLASSES
  0
CLASS
  1
ACDBDICTIONARYWDFLT
  2
AcDbDictionaryWithDefault
  3
ObjectDBX Classes
 90
0
 91
0
280
0
281
0
  0
CLASS
  1
SUN
  2
AcDbSun
  3
SCENEOE
 90
1153
 91
0
280
0
281
0
  0
CLASS
  1
VISUALSTYLE
  2
AcDbVisualStyle
  3
ObjectDBX Classes
 90
4095
 91
0
280
0
281
0
  0
CLASS
  1
MATERIAL
  2
AcDbMaterial
  3
ObjectDBX Classes
 90
1153
 91
0
280
0
281
0
  0
CLASS
  1
SCALE
  2
AcDbScale
  3
ObjectDBX Classes
 90
1153
 91
0
280
0
281
0
  0
CLASS
  1
TABLESTYLE
  2
AcDbTableStyle
  3
ObjectDBX Classes
 90
4095
 91
0
280
0
281
0
  0
CLASS
  1
MLEADERSTYLE
  2
AcDbMLeaderStyle
  3
ACDB_MLEADERSTYLE_CLASS
 90
4095
 91
0
280
0
281
0
  0
CLASS
  1
DICTIONARYVAR
  2
AcDbDictionaryVar
  3
ObjectDBX Classes
 90
0
 91
0
280
0
281
0
  0
CLASS
  1
CELLSTYLEMAP
  2
AcDbCellStyleMap
  3
ObjectDBX Classes
 90
1152
 91
0
280
0
281
0
  0
CLASS
  1
MENTALRAYRENDERSETTINGS
  2
AcDbMentalRayRenderSettings
  3
SCENEOE
 90
1024
 91
0
280
0
281
0
  0
CLASS
  1
ACDBDETAILVIEWSTYLE
  2
AcDbDetailViewStyle
  3
ObjectDBX Classes
 90
1025
 91
0
280
0
281
0
  0
CLASS
  1
ACDBSECTIONVIEWSTYLE
  2
AcDbSectionViewStyle
  3
ObjectDBX Classes
 90
1025
 91
0
280
0
281
0
  0
CLASS
  1
RASTERVARIABLES
  2
AcDbRasterVariables
  3
ISM
 90
0
 91
0
280
0
281
0
  0
CLASS
  1
LAYOUT
  2
AcDbLayout
  3
ObjectDBX Classes
 90
0
 91
0
280
0
281
0
  0
CLASS
  1
ACDBPLACEHOLDER
  2
AcDbPlaceHolder
  3
ObjectDBX Classes
 90
0
 91
0
280
0
281
0
  0
ENDSEC
  0
SECTION
  2
TABLES
  0
TABLE
  2
VPORT
  5
8
330
0
100
AcDbSymbolTable
 70
1
  0
VPORT
  5
23
330
8
100
AcDbSymbolTableRecord
100
AcDbViewportTableRecord
  2
*Active
 70
0
 10
0.0
 20
0.0
 11
1.0
 21
1.0
 12
70.0
 22
50.0
 13
0.0
 23
0.0
 14
0.5
 24
0.5
 15
0.5
 25
0.5
 16
0.0
 26
0.0
 36
1.0
 17
0.0
 27
0.0
 37
0.0
 40
1.0
 41
1.34
 42
50.0
 43
0.0
 44
0.0
 50
0.0
 51
0.0
 71
0
 72
1000
 73
1
 74
3
 75
0
 76
0
 77
0
 78
0
281
0
 65
0
146
0.0
  0
ENDTAB
  0
TABLE
  2
LTYPE
  5
2
330
0
100
AcDbSymbolTable
 70
3
  0
LTYPE
  5
24
330
2
100
AcDbSymbolTableRecord
100
AcDbLinetypeTableRecord
  2
ByBlock
 70
0
  3

 72
65
 73
0
 40
0.0
  0
LTYPE
  5
25
330
2
100
AcDbSymbolTableRecord
100
AcDbLinetypeTableRecord
  2
ByLayer
 70
0
  3

 72
65
 73
0
 40
0.0
  0
LTYPE
  5
26
330
2
100
AcDbSymbolTableRecord
100
AcDbLinetypeTableRecord
  2
Continuous
 70
0
  3

 72
65
 73
0
 40
0.0
  0
ENDTAB
  0
TABLE
  2
LAYER
  5
1
330
0
100
AcDbSymbolTable
 70
2
  0
LAYER
  5
27
330
1
100
AcDbSymbolTableRecord
100
AcDbLayerTableRecord
  2
0
 70
0
 62
7
  6
Continuous
370
-3
390
13
347
21
  0
LAYER
  5
28
330
1
100
AcDbSymbolTableRecord
100
AcDbLayerTableRecord
  2
Defpoints
 70
0
 62
7
  6
Continuous
290
0
370
-3
390
13
347
21
  0
ENDTAB
  0
TABLE
  2
STYLE
  5
5
330
0
100
AcDbSymbolTable
 70
1
  0
STYLE
  5
29
330
5
100
AcDbSymbolTableRecord
100
AcDbTextStyleTableRecord
  2
Standard
 70
0
 40
0.0
 41
1.0
 50
0.0
 71
0
 42
2.5
  3
txt
  4

  0
ENDTAB
  0
TABLE
  2
VIEW
  5
7
330
0
100
AcDbSymbolTable
 70
0
  0
ENDTAB
  0
TABLE
  2
UCS
  5
6
330
0
100
AcDbSymbolTable
 70
0
  0
ENDTAB
  0
TABLE
  2
APPID
  5
3
330
0
100
AcDbSymbolTable
 70
2
  0
APPID
  5
2A
330
3
100
AcDbSymbolTableRecord
100
AcDbRegAppTableRecord
  2
ACAD
 70
0
  0
APPID
  5
34
330
3
100
AcDbSymbolTableRecord
100
AcDbRegAppTableRecord
  2
HATCHBACKGROUNDCOLOR
 70
0
  0
ENDTAB
  0
TABLE
  2
DIMSTYLE
  5
4
330
0
100
AcDbSymbolTable
 70
1
100
AcDbDimStyleTable
  0
DIMSTYLE
105
2B
330
4
100
AcDbSymbolTableRecord
100
AcDbDimStyleTableRecord
  2
Standard
 70
0
 40
1.0
 41
2.5
 42
0.625
 43
3.75
 44
1.25
 45
0.0
 46
0.0
 47
0.0
 48
0.0
 49
2.5
140
2.5
141
2.5
142
0.0
143
0.03937007874
144
1.0
145
0.0
146
1.0
147
0.625
148
0.0
 69
0
 70
0
 71
0
 72
0
 73
0
 74
0
 75
0
 76
0
 77
1
 78
8
 79
0
170
0
171
3
172
1
173
0
174
0
175
0
176
0
177
0
178
0
179
0
271
0
272
2
273
2
274
3
275
0
276
0
277
2
278
44
279
0
280
0
281
0
282
0
283
0
284
8
285
0
286
0
288
0
289
3
290
0
371
-2
372
-2
  0
ENDTAB
  0
TABLE
  2
BLOCK_RECORD
  5
9
330
0
100
AcDbSymbolTable
 70
2
  0
BLOCK_RECORD
  5
17
330
9
100
AcDbSymbolTableRecord
100
AcDbBlockTableRecord
  2
*Model_Space
340
1A
 70
0
280
1
281
0
  0
BLOCK_RECORD
  5
1B
330
9
100
AcDbSymbolTableRecord
100
AcDbBlockTableRecord
  2
*Paper_Space
340
1E
 70
0
280
1
281
0
  0
ENDTAB
  0
ENDSEC
  0
SECTION
  2
BLOCKS
  0
BLOCK
  5
18
330
17
100
AcDbEntity
  8
0
100
AcDbBlockBegin
  2
*Model_Space
 70
0
 10
0.0
 20
0.0
 30
0.0
  3
*Model_Space
  1

  0
ENDBLK
  5
19
330
17
100
AcDbEntity
  8
0
100
AcDbBlockEnd
  0
BLOCK
  5
1C
330
1B
100
AcDbEntity
  8
0
100
AcDbBlockBegin
  2
*Paper_Space
 70
0
 10
0.0
 20
0.0
 30
0.0
  3
*Paper_Space
  1

  0
ENDBLK
  5
1D
330
1B
100
AcDbEntity
  8
0
100
AcDbBlockEnd
  0
ENDSEC
  0
SECTION
  2
ENTITIES
  0
ARC
  5
2D
330
17
100
AcDbEntity
  8
0
100
AcDbCircle
 10
0.0
 20
0.0
 30
0.0
 40
6000.0
100
AcDbArc
 50
90.0
 51
180.0
  0
LWPOLYLINE
  5
2E
330
17
100
AcDbEntity
  8
0
100
AcDbPolyline
 90
2
 70
0
 10
-12500.0
 20
0.0
 10
-12500.0
 20
7500.0
  0
LWPOLYLINE
  5
2F
330
17
100
AcDbEntity
  8
0
100
AcDbPolyline
 90
2
 70
0
 10
0.0
 20
12500.0
 10
-7500.0
 20
12500.0
  0
ARC
  5
30
330
17
100
AcDbEntity
  8
0
100
AcDbCircle
 10
-7500.0
 20
7500.0
 30
0.0
 40
5000.0
100
AcDbArc
 50
90.0
 51
180.0
  0
LWPOLYLINE
  5
31
330
17
100
AcDbEntity
  8
0
100
AcDbPolyline
 90
91
 70
0
 10
-7625.0
 20
0.0
 10
-7624.3146282037615
 20
133.08290686845575
 10
-7622.258721585931
 20
266.175139822966
 10
-7618.8329063955825
 20
399.28611335275104
 10
-7614.038226169209
 20
532.4254191720339
 10
-7607.876141412855
 20
665.6029158829742
 10
-7600.348529157229
 20
798.8288199096795
 10
-7591.457682385949
 20
932.1137981447405
 10
-7581.206309337066
 20
1065.4690627652676
 10
-7569.59753267812
 20
1198.906468695215
 10
-7556.634888554936
 20
1332.4386142151395
 10
-7542.322325514488
 20
1466.0789452498218
 10
-7526.664203302125
 20
1599.8418638987362
 10
-7509.665291533558
 20
1733.7428418147772
 10
-7491.330768241984
 20
1867.7985390834444
 10
-7471.6662183008075
 20
2002.0269293086017
 10
-7450.677631722435
 20
2136.447431672771
 10
-7428.37140183366
 20
2271.081050810629
 10
-7404.75432332819
 20
2405.9505254150954
 10
-7379.833590196926
 20
2541.080486587409
 10
-7353.6167935365875
 20
2676.4976270473912
 10
-7326.111919237408
 20
2812.2308824395254
 10
-7297.327345550543
 20
2948.311626106469
 10
-7267.271840535982
 20
3084.7738788567467
 10
-7235.954559391704
 20
3221.6545354302766
 10
-7203.385041664925
 20
3358.993609567518
 10
-7169.573208346252
 20
3496.834499819165
 10
-7134.529358847655
 20
3635.2242784980504
 10
-7098.264167865172
 20
3774.2140064786295
 10
-7060.7886821272805
 20
3913.85907689842
 10
-7022.114317029974
 20
4054.21959121758
 10
-6982.24996366735
 20
4195.359035374325
 10
-6938.887924480031
 20
4335.898400341295
 10
-6890.14864884245
 20
4474.5148508178545
 10
-6836.208143470423
 20
4611.080615678356
 10
-6777.228430652131
 20
4745.466435311783
 10
-6713.360933231436
 20
4877.542223842397
 10
-6644.749056379446
 20
5007.177563351452
 10
-6571.530181119463
 20
5134.242074663723
 10
-6493.8372192236375
 20
5258.605694294766
 10
-6411.799835628577
 20
5380.138877258483
 10
-6325.54541496006
 20
5498.712738679021
 10
-6235.19982825546
 20
5614.199142366413
 10
-6140.888041485286
 20
5726.470740967387
 10
-6042.734597053418
 20
5835.4009695128325
 10
-5940.863991822649
 20
5940.863991822648
 10
-5835.4009695128325
 20
6042.734597053417
 10
-5726.470740967387
 20
6140.888041485286
 10
-5614.199142366413
 20
6235.19982825546
 10
-5498.712738679021
 20
6325.54541496006
 10
-5380.138877258484
 20
6411.799835628577
 10
-5258.605694294768
 20
6493.837219223638
 10
-5134.242074663723
 20
6571.530181119464
 10
-5007.1775633514535
 20
6644.749056379448
 10
-4877.542223842397
 20
6713.360933231436
 10
-4745.466435311784
 20
6777.228430652131
 10
-4611.080615678355
 20
6836.208143470424
 10
-4474.5148508178545
 20
6890.14864884245
 10
-4335.898400341295
 20
6938.887924480031
 10
-4195.359035374325
 20
6982.24996366735
 10
-4054.2195912175816
 20
7022.114317029974
 10
-3913.8590768984204
 20
7060.7886821272805
 10
-3774.21400647863
 20
7098.264167865171
 10
-3635.224278498051
 20
7134.529358847655
 10
-3496.8344998191656
 20
7169.573208346252
 10
-3358.993609567518
 20
7203.385041664925
 10
-3221.6545354302766
 20
7235.954559391704
 10
-3084.7738788567463
 20
7267.271840535982
 10
-2948.3116261064683
 20
7297.327345550543
 10
-2812.2308824395263
 20
7326.111919237408
 10
-2676.4976270473926
 20
7353.6167935365875
 10
-2541.0804865874093
 20
7379.833590196925
 10
-2405.950525415096
 20
7404.75432332819
 10
-2271.081050810629
 20
7428.37140183366
 10
-2136.447431672771
 20
7450.677631722435
 10
-2002.0269293086017
 20
7471.6662183008075
 10
-1867.798539083444
 20
7491.330768241984
 10
-1733.7428418147765
 20
7509.665291533558
 10
-1599.841863898737
 20
7526.664203302125
 10
-1466.0789452498227
 20
7542.322325514488
 10
-1332.4386142151402
 20
7556.634888554936
 10
-1198.9064686952152
 20
7569.59753267812
 10
-1065.4690627652678
 20
7581.206309337066
 10
-932.1137981447406
 20
7591.457682385949
 10
-798.8288199096794
 20
7600.348529157229
 10
-665.602915882974
 20
7607.876141412855
 10
-532.4254191720335
 20
7614.038226169209
 10
-399.28611335275207
 20
7618.8329063955825
 10
-266.17513982296686
 20
7622.258721585931
 10
-133.08290686845643
 20
7624.3146282037615
 10
-4.668965921749284e-13
 20
7625.0
  0
LWPOLYLINE
  5
32
330
17
100
AcDbEntity
  8
0
100
AcDbPolyline
 90
91
 70
0
 10
-9250.0
 20
0.0
 10
-9249.543085469175
 20
161.45137511321045
 10
-9248.172481057287
 20
322.95329943092617
 10
-9245.888604263722
 20
484.55648924783907
 10
-9242.692150779472
 20
646.3119958793161
 10
-9238.584094275237
 20
808.2713752799995
 10
-9233.56568610482
 20
970.4868602134381
 10
-9227.638454923966
 20
1133.0115358585963
 10
-9220.804206224711
 20
1295.8995197701427
 10
-9213.065021785413
 20
1459.2061471490445
 10
-9204.423259036625
 20
1622.988162428697
 10
-9194.88155034299
 20
1787.3039182403747
 10
-9184.442802201418
 20
1952.2135828909163
 10
-9173.110194355704
 20
2117.7793575663645
 10
-9160.887178827988
 20
2284.065704568882
 10
-9147.777478867205
 20
2451.139588002079
 10
-9133.785087814957
 20
2619.0707284435466
 10
-9118.914267889108
 20
2787.9318732848383
 10
-9103.16954888546
 20
2957.7990845805066
 10
-9086.55572679795
 20
3128.7520464318777
 10
-9069.077862357724
 20
3300.8743941407706
 10
-9050.741279491605
 20
3474.2540676072495
 10
-9031.551563700363
 20
3648.9836917174657
 10
-9011.514560357322
 20
3825.160986777851
 10
-8990.636372927802
 20
4002.889212405752
 10
-8968.92336110995
 20
4182.27764869084
 10
-8946.382138897501
 20
4363.442118903866
 10
-8923.019572565103
 20
4546.50555855882
 10
-8898.84277857678
 20
4731.598636241914
 10
-8873.859121418187
 20
4918.860432318817
 10
-8848.076211353316
 20
5108.43918243516
 10
-8821.496123122026
 20
5300.489621288324
 10
-8789.487272021506
 20
5492.281215283361
 10
-8748.273890012357
 20
5681.195491545548
 10
-8698.1908516106
 20
5867.00381053223
 10
-8639.544595570313
 20
6049.474252517291
 10
-8572.619900213189
 20
6228.372933929954
 10
-8497.685052475135
 20
6403.464987790614
 10
-8414.995840598594
 20
6574.515297373494
 10
-8324.79866970545
 20
6741.2890422905075
 10
-8227.333012543286
 20
6903.552096397731
 10
-8122.833348583488
 20
7061.071303414997
 10
-8011.530703646552
 20
7213.614646579675
 10
-7893.653873255546
 20
7360.951321559783
 10
-7769.43039207493
 20
7502.8517162716835
 10
-7639.087296526011
 20
7639.08729652601
 10
-7502.8517162716835
 20
7769.430392074929
 10
-7360.951321559783
 20
7893.653873255546
 10
-7213.614646579675
 20
8011.530703646552
 10
-7061.071303414997
 20
8122.833348583488
 10
-6903.5520963977315
 20
8227.333012543286
 10
-6741.289042290511
 20
8324.798669705451
 10
-6574.515297373496
 20
8414.995840598596
 10
-6403.464987790616
 20
8497.685052475137
 10
-6228.372933929954
 20
8572.619900213189
 10
-6049.4742525172915
 20
8639.544595570313
 10
-5867.003810532229
 20
8698.1908516106
 10
-5681.195491545548
 20
8748.273890012357
 10
-5492.281215283361
 20
8789.487272021506
 10
-5300.489621288324
 20
8821.496123122026
 10
-5108.439182435162
 20
8848.076211353316
 10
-4918.860432318817
 20
8873.859121418187
 10
-4731.598636241915
 20
8898.84277857678
 10
-4546.505558558822
 20
8923.019572565105
 10
-4363.442118903867
 20
8946.382138897501
 10
-4182.27764869084
 20
8968.92336110995
 10
-4002.889212405752
 20
8990.636372927802
 10
-3825.1609867778507
 20
9011.514560357322
 10
-3648.9836917174653
 20
9031.551563700363
 10
-3474.2540676072504
 20
9050.741279491605
 10
-3300.8743941407724
 20
9069.077862357726
 10
-3128.752046431878
 20
9086.55572679795
 10
-2957.799084580507
 20
9103.16954888546
 10
-2787.9318732848383
 20
9118.914267889108
 10
-2619.0707284435466
 20
9133.785087814957
 10
-2451.139588002079
 20
9147.777478867205
 10
-2284.0657045688818
 20
9160.887178827988
 10
-2117.7793575663636
 20
9173.110194355704
 10
-1952.2135828909175
 20
9184.442802201416
 10
-1787.3039182403757
 20
9194.88155034299
 10
-1622.988162428698
 20
9204.423259036625
 10
-1459.206147149045
 20
9213.065021785413
 10
-1295.899519770143
 20
9220.804206224711
 10
-1133.0115358585963
 20
9227.638454923966
 10
-970.486860213438
 20
9233.56568610482
 10
-808.2713752799992
 20
9238.584094275237
 10
-646.3119958793154
 20
9242.692150779472
 10
-484.5564892478403
 20
9245.888604263722
 10
-322.95329943092725
 20
9248.172481057287
 10
-161.45137511321124
 20
9249.543085469175
 10
-5.663991446056509e-13
 20
9250.0
  0
LWPOLYLINE
  5
33
330
17
100
AcDbEntity
  8
0
100
AcDbPolyline
 90
91
 70
0
 10
-10875.0
 20
0.0
 10
-10874.771542734587
 20
189.8198433579651
 10
-10874.086240528643
 20
379.7314590388864
 10
-10872.944302131862
 20
569.8268651429271
 10
-10871.346075389736
 20
760.1985725865981
 10
-10869.292047137618
 20
950.9398346770247
 10
-10866.78284305241
 20
1142.1449005171971
 10
-10863.819227461981
 20
1333.9092735724516
 10
-10860.402103112356
 20
1526.329976775018
 10
-10856.532510892706
 20
1719.505825602874
 10
-10852.211629518313
 20
1913.5377106422545
 10
-10847.440775171497
 20
2108.528891230928
 10
-10842.221401100709
 20
2304.5853018830967
 10
-10836.555097177854
 20
2501.8158733179516
 10
-10830.443589413995
 20
2700.3328700543207
 10
-10823.888739433603
 20
2900.252246695556
 10
-10816.89254390748
 20
3101.694025214323
 10
-10809.457133944554
 20
3304.7826957590464
 10
-10801.58477444273
 20
3509.647643745918
 10
-10793.277863398975
 20
3716.4236062763466
 10
-10784.538931178864
 20
3925.25116123415
 10
-10775.370639745803
 20
4136.277252774973
 10
-10765.775781850181
 20
4349.655757328464
 10
-10755.75728017866
 20
4565.548094698955
 10
-10745.318186463901
 20
4784.123889381227
 10
-10734.461680554976
 20
5005.561687814162
 10
-10723.19106944875
 20
5230.049737988566
 10
-10711.509786282551
 20
5457.786838619589
 10
-10699.42138928839
 20
5688.983266005199
 10
-10686.929560709092
 20
5923.861787739214
 10
-10674.038105676658
 20
6162.658773652741
 10
-10660.7422825767
 20
6405.620207202323
 10
-10640.086619562984
 20
6648.664030225428
 10
-10606.399131182265
 20
6887.876132273242
 10
-10560.173559750774
 20
7122.927005386105
 10
-10501.860760488495
 20
7353.482069722798
 10
-10431.87886719494
 20
7579.2036440175125
 10
-10350.621048570825
 20
7799.7524122297755
 10
-10258.461500077725
 20
8014.788520083266
 10
-10155.76012018726
 20
8223.97239028625
 10
-10042.866189457995
 20
8426.965315536978
 10
-9920.121282206916
 20
8623.429868150972
 10
-9787.861579037644
 20
8813.030150792938
 10
-9646.419705025808
 20
8995.431902152179
 10
-9496.126187096443
 20
9170.302463030534
 10
-9337.310601229374
 20
9337.310601229372
 10
-9170.302463030534
 20
9496.12618709644
 10
-8995.431902152179
 20
9646.419705025808
 10
-8813.030150792938
 20
9787.861579037644
 10
-8623.429868150972
 20
9920.121282206916
 10
-8426.96531553698
 20
10042.866189457995
 10
-8223.972390286253
 20
10155.760120187264
 10
-8014.788520083268
 20
10258.461500077728
 10
-7799.752412229778
 20
10350.621048570827
 10
-7579.2036440175125
 20
10431.87886719494
 10
-7353.4820697228
 20
10501.860760488495
 10
-7122.927005386104
 20
10560.173559750776
 10
-6887.876132273242
 20
10606.399131182265
 10
-6648.664030225428
 20
10640.086619562984
 10
-6405.620207202323
 20
10660.7422825767
 10
-6162.658773652744
 20
10674.038105676658
 10
-5923.861787739215
 20
10686.929560709092
 10
-5688.983266005201
 20
10699.42138928839
 10
-5457.7868386195905
 20
10711.509786282551
 10
-5230.049737988567
 20
10723.19106944875
 10
-5005.561687814162
 20
10734.461680554976
 10
-4784.123889381227
 20
10745.318186463901
 10
-4565.548094698954
 20
10755.75728017866
 10
-4349.655757328463
 20
10765.775781850181
 10
-4136.277252774975
 20
10775.370639745803
 10
-3925.2511612341514
 20
10784.538931178862
 10
-3716.423606276348
 20
10793.277863398975
 10
-3509.6476437459187
 20
10801.58477444273
 10
-3304.7826957590464
 20
10809.457133944554
 10
-3101.694025214323
 20
10816.89254390748
 10
-2900.252246695556
 20
10823.888739433603
 10
-2700.33287005432
 20
10830.443589413995
 10
-2501.8158733179507
 20
10836.555097177854
 10
-2304.585301883098
 20
10842.221401100709
 10
-2108.5288912309293
 20
10847.440775171497
 10
-1913.5377106422554
 20
10852.211629518313
 10
-1719.5058256028744
 20
10856.532510892706
 10
-1526.3299767750182
 20
10860.402103112356
 10
-1333.9092735724519
 20
10863.819227461981
 10
-1142.144900517197
 20
10866.78284305241
 10
-950.9398346770245
 20
10869.292047137618
 10
-760.1985725865973
 20
10871.346075389736
 10
-569.8268651429286
 20
10872.944302131862
 10
-379.7314590388876
 20
10874.086240528643
 10
-189.81984335796605
 20
10874.771542734587
 10
-6.659016970363733e-13
 20
10875.0
  0
ENDSEC
  0
SECTION
  2
OBJECTS
  0
DICTIONARY
  5
A
330
0
100
AcDbDictionary
281
1
  3
ACAD_COLOR
350
B
  3
ACAD_GROUP
350
C
  3
ACAD_LAYOUT
350
D
  3
ACAD_MATERIAL
350
E
  3
ACAD_MLEADERSTYLE
350
F
  3
ACAD_MLINESTYLE
350
10
  3
ACAD_PLOTSETTINGS
350
11
  3
ACAD_PLOTSTYLENAME
350
12
  3
ACAD_SCALELIST
350
14
  3
ACAD_TABLESTYLE
350
15
  3
ACAD_VISUALSTYLE
350
16
  0
DICTIONARY
  5
B
330
A
100
AcDbDictionary
281
1
  0
DICTIONARY
  5
C
330
A
100
AcDbDictionary
281
1
  0
DICTIONARY
  5
D
330
A
100
AcDbDictionary
281
1
  3
Model
350
1A
  3
Layout1
350
1E
  0
DICTIONARY
  5
E
330
A
100
AcDbDictionary
281
1
  3
ByBlock
350
1F
  3
ByLayer
350
20
  3
Global
350
21
  0
DICTIONARY
  5
F
330
A
100
AcDbDictionary
281
1
  3
Standard
350
2C
  0
DICTIONARY
  5
10
330
A
100
AcDbDictionary
281
1
  3
Standard
350
22
  0
DICTIONARY
  5
11
330
A
100
AcDbDictionary
281
1
  0
ACDBDICTIONARYWDFLT
  5
12
330
A
100
AcDbDictionary
281
1
  3
Normal
350
13
100
AcDbDictionaryWithDefault
340
13
  0
ACDBPLACEHOLDER
  5
13
330
12
  0
DICTIONARY
  5
14
330
A
100
AcDbDictionary
281
1
  0
DICTIONARY
  5
15
330
A
100
AcDbDictionary
281
1
  0
DICTIONARY
  5
16
330
A
100
AcDbDictionary
281
1
  0
LAYOUT
  5
1A
330
D
100
AcDbPlotSettings
  1

  2
Adobe PDF
  4
A4
  6

 40
3.175
 41
3.175
 42
3.175
 43
3.175
 44
209.91
 45
297.03
 46
0.0
 47
0.0
 48
0.0
 49
0.0
140
0.0
141
0.0
142
1.0
143
1.0
 70
1024
 72
0
 73
1
 74
5
  7

 75
16
 76
0
 77
2
 78
300
147
1.0
148
0.0
149
0.0
100
AcDbLayout
  1
Model
 70
1
 71
0
 10
-3.175
 20
-3.175
 11
293.857
 21
206.735
 12
0.0
 22
0.0
 32
0.0
 14
29.068
 24
20.356
 34
0.0
 15
261.614
 25
183.204
 35
0.0
146
0.0
 13
0.0
 23
0.0
 33
0.0
 16
1.0
 26
0.0
 36
0.0
 17
0.0
 27
1.0
 37
0.0
 76
1
330
17
  0
LAYOUT
  5
1E
330
D
100
AcDbPlotSettings
  1

  2
Adobe PDF
  4
A4
  6

 40
3.175
 41
3.175
 42
3.175
 43
3.175
 44
209.91
 45
297.03
 46
0.0
 47
0.0
 48
0.0
 49
0.0
140
0.0
141
0.0
142
1.0
143
1.0
 70
0
 72
0
 73
1
 74
5
  7

 75
16
 76
0
 77
2
 78
300
147
1.0
148
0.0
149
0.0
100
AcDbLayout
  1
Layout1
 70
1
 71
1
 10
-3.175
 20
-3.175
 11
293.857
 21
206.735
 12
0.0
 22
0.0
 32
0.0
 14
29.068
 24
20.356
 34
0.0
 15
261.614
 25
183.204
 35
0.0
146
0.0
 13
0.0
 23
0.0
 33
0.0
 16
1.0
 26
0.0
 36
0.0
 17
0.0
 27
1.0
 37
0.0
 76
1
330
1B
  0
MATERIAL
  5
1F
102
{ACAD_REACTORS
330
E
102
}
330
E
100
AcDbMaterial
  1
ByBlock
  2

 70
0
 40
1.0
 71
1
 41
1.0
 91
-1023410177
 42
1.0
 72
1
  3

 73
1
 74
1
 75
1
 44
0.5
 73
0
 45
1.0
 46
1.0
 77
1
  4

 78
1
 79
1
170
1
 48
1.0
171
1
  6

172
1
173
1
174
1
140
1.0
141
1.0
175
1
  7

176
1
177
1
178
1
143
1.0
179
1
  8

270
1
271
1
272
1
145
1.0
146
1.0
273
1
  9

274
1
275
1
276
1
 42
1.0
 72
1
  3

 73
1
 74
1
 75
1
 94
63
  0
MATERIAL
  5
20
102
{ACAD_REACTORS
330
E
102
}
330
E
100
AcDbMaterial
  1
ByLayer
  2

 70
0
 40
1.0
 71
1
 41
1.0
 91
-1023410177
 42
1.0
 72
1
  3

 73
1
 74
1
 75
1
 44
0.5
 73
0
 45
1.0
 46
1.0
 77
1
  4

 78
1
 79
1
170
1
 48
1.0
171
1
  6

172
1
173
1
174
1
140
1.0
141
1.0
175
1
  7

176
1
177
1
178
1
143
1.0
179
1
  8

270
1
271
1
272
1
145
1.0
146
1.0
273
1
  9

274
1
275
1
276
1
 42
1.0
 72
1
  3

 73
1
 74
1
 75
1
 94
63
  0
MATERIAL
  5
21
102
{ACAD_REACTORS
330
E
102
}
330
E
100
AcDbMaterial
  1
Global
  2

 70
0
 40
1.0
 71
1
 41
1.0
 91
-1023410177
 42
1.0
 72
1
  3

 73
1
 74
1
 75
1
 44
0.5
 73
0
 45
1.0
 46
1.0
 77
1
  4

 78
1
 79
1
170
1
 48
1.0
171
1
  6

172
1
173
1
174
1
140
1.0
141
1.0
175
1
  7

176
1
177
1
178
1
143
1.0
179
1
  8

270
1
271
1
272
1
145
1.0
146
1.0
273
1
  9

274
1
275
1
276
1
 42
1.0
 72
1
  3

 73
1
 74
1
 75
1
 94
63
  0
MLINESTYLE
  5
22
102
{ACAD_REACTORS
330
10
102
}
330
10
100
AcDbMlineStyle
  2
Standard
 70
0
  3

 62
256
 51
90.0
 52
90.0
 71
2
 49
0.5
 62
256
  6
BYLAYER
 49
-0.5
 62
256
  6
BYLAYER
  0
MLEADERSTYLE
  5
2C
102
{ACAD_REACTORS
330
F
102
}
330
F
100
AcDbMLeaderStyle
179
2
170
2
171
1
172
0
 90
2
 40
0.0
 41
0.0
173
1
 91
-1056964608
 92
-2
290
1
 42
2.0
291
1
 43
8.0
  3
Standard
 44
4.0
300

342
29
174
1
175
1
176
0
178
1
 93
-1056964608
 45
4.0
292
0
297
0
 46
4.0
 94
-1056964608
 47
1.0
 49
1.0
140
1.0
294
1
141
0.0
177
0
142
1.0
295
0
296
0
143
3.75
271
0
272
9
273
9
  0
ENDSEC
  0
EOF
